<svg version="1.1" id="Layer_1" xmlns="http://www.w3.org/2000/svg" xmlns:xlink="http://www.w3.org/1999/xlink" x="0px" y="0px"
	 width="100%" viewBox="0 0 412 412" enable-background="new 0 0 412 412" xml:space="preserve">
<path fill="#050344" opacity="1.000000" stroke="none" 
	d="
M222.000000,1.000000 
	C285.649780,1.000000 349.299530,1.000000 412.974670,1.000000 
	C412.974670,138.279984 412.974670,275.559967 412.974670,412.919983 
	C275.756500,412.919983 138.512955,412.919983 1.134700,412.919983 
	C1.134700,275.666748 1.134700,138.333389 1.127907,1.000022 
	C72.102173,1.000000 143.083237,1.000000 214.541534,1.403242 
	C215.101486,2.608488 215.184204,3.410491 215.149231,4.099147 
	C215.031525,3.985801 215.274780,4.207528 215.009888,4.290338 
	C214.674194,4.709424 214.603378,5.045701 214.523346,5.432050 
	C214.514130,5.482124 214.467911,5.572864 214.104706,5.456192 
	C212.359436,7.832853 210.566666,10.186419 209.662827,12.842484 
	C204.302200,28.595657 204.308838,44.799625 206.166748,61.092648 
	C206.318832,62.426472 207.438751,63.649937 208.312027,65.140244 
	C208.589722,65.932648 208.664352,66.509483 208.516891,67.397369 
	C209.531921,73.790154 210.403870,79.978996 212.144577,85.913002 
	C213.170959,89.411934 215.574356,92.506920 217.299866,95.821350 
	C217.241272,95.859123 217.295654,95.730728 217.288025,95.997284 
	C217.520279,96.510109 217.760162,96.756378 218.208405,97.190941 
	C218.584259,97.911346 218.751755,98.443459 218.683624,99.219131 
	C219.017700,103.911057 220.528488,107.802422 224.855469,110.258957 
	C224.970062,110.423134 225.032471,110.818665 225.020844,111.147156 
	C225.386398,111.959679 225.763580,112.443710 226.081757,112.929382 
	C226.022720,112.931023 226.130356,112.882408 226.097046,113.267395 
	C226.994797,114.812195 227.925842,115.972000 228.913849,117.458481 
	C229.610870,118.558006 230.250946,119.330833 230.921112,120.501465 
	C230.649490,123.811676 231.848999,125.326157 235.018890,125.327209 
	C235.339661,125.790627 235.576843,126.001404 235.998474,126.345947 
	C236.336975,126.770821 236.566086,126.978027 236.866119,127.520477 
	C237.226364,130.947525 238.154205,133.263199 242.249039,132.159012 
	C243.001846,132.879272 243.485718,133.482162 244.017792,134.397644 
	C244.724411,135.108170 245.382843,135.506119 246.055817,135.915161 
	C246.070358,135.926270 246.097763,135.950516 246.118561,136.275513 
	C246.799713,137.028625 247.460068,137.456757 248.056335,137.932053 
	C247.992233,137.979218 248.112854,137.873016 248.114502,138.231873 
	C249.172623,139.280029 250.229095,139.969330 251.186768,140.671402 
	C251.087967,140.684189 251.286667,140.698288 251.329315,140.970413 
	C251.695038,141.353943 252.018097,141.465332 252.263214,141.737244 
	C252.185257,141.897736 252.377701,141.597214 252.407227,141.914032 
	C252.982681,142.468307 253.528610,142.705765 254.039200,142.967621 
	C254.003860,142.992020 254.051437,142.920486 254.067657,143.282608 
	C255.400482,144.419434 256.717102,145.194153 258.016846,145.984131 
	C258.000000,145.999390 258.028625,145.963486 258.045807,146.318054 
	C260.154846,147.967789 262.246704,149.262985 264.169495,150.748291 
	C264.117737,150.816101 264.235046,150.693817 264.378815,150.935501 
	C265.624115,151.843048 266.843018,152.386627 268.032166,152.965103 
	C268.002441,153.000000 268.064972,152.930344 268.082184,153.282684 
	C269.194092,154.812393 270.095093,156.304306 271.414490,157.116730 
	C280.866241,162.936600 290.326324,168.752975 299.966461,174.250015 
	C302.405945,175.641068 305.506073,175.873627 308.240753,176.821426 
	C308.178894,177.004318 308.280853,176.633438 308.319397,177.006866 
	C310.431885,178.455063 312.505829,179.529846 314.736633,180.634827 
	C314.893555,180.665009 315.091003,180.916260 315.099640,181.295609 
	C315.747131,184.547318 317.472412,185.525482 320.164642,184.720215 
	C320.059906,184.805359 320.294281,184.671387 320.352905,184.967834 
	C320.936371,185.476074 321.461182,185.687866 322.031738,185.897583 
	C322.077484,185.895508 322.105835,185.982544 322.192017,186.212524 
	C322.488861,186.729446 322.772217,186.874176 323.093445,186.932251 
	C323.058563,186.987778 323.139435,186.875153 323.101532,187.249359 
	C324.714294,188.741928 326.364929,189.860291 328.008423,190.989014 
	C328.001221,190.999390 328.021149,190.983948 328.041443,191.336945 
	C329.899933,195.086426 331.762085,198.454590 336.209045,198.665222 
	C336.111664,198.688858 336.312103,198.688507 336.334686,198.966293 
	C336.659637,199.428360 336.962036,199.612640 337.188660,199.808365 
	C337.112946,199.819809 337.238983,199.732758 337.214905,200.094223 
	C338.791382,203.057571 340.391968,205.659470 341.914368,208.134277 
	C343.878540,208.420715 345.932892,208.720291 347.993591,209.010254 
	C348.000000,209.000610 347.982574,209.016190 348.116028,209.233383 
	C348.557129,209.565445 348.864807,209.680328 349.443970,209.934265 
	C349.864685,210.211487 350.013855,210.349670 350.216766,210.787857 
	C351.150299,210.769058 352.030121,210.450256 352.909973,210.131439 
	C352.230103,208.393005 351.550262,206.654587 350.720520,204.571106 
	C349.162933,200.062119 347.755219,195.898209 346.369934,191.806458 
	C346.392365,191.878632 346.396637,191.727539 346.348755,191.359192 
	C343.958588,186.580704 341.616333,182.170563 339.217407,177.837280 
	C339.160675,177.914139 339.317596,177.805176 339.263245,177.478149 
	C338.309814,175.978317 337.410736,174.805527 336.492096,173.600754 
	C336.472565,173.568771 336.447388,173.498169 336.379272,173.189331 
	C335.218933,171.567581 334.126678,170.254669 333.017334,168.968323 
	C333.000244,168.994888 333.058289,168.970032 332.984253,168.651062 
	C331.613586,166.885529 330.316925,165.438980 328.946136,163.740768 
	C328.593872,163.298294 328.315735,163.107468 327.907471,162.645111 
	C327.615204,162.255264 327.453033,162.136948 327.341980,161.905518 
	C327.393097,161.792419 327.021729,161.707870 326.845581,161.450485 
	C326.485718,161.095764 326.302002,160.998444 325.982117,160.596802 
	C323.053925,157.721497 320.261902,155.150497 317.460510,152.596893 
	C317.451202,152.614304 317.411774,152.612671 317.330658,152.363388 
	C316.955322,151.943466 316.661133,151.772827 316.302368,151.576569 
	C316.237823,151.550934 316.376709,151.549820 316.248291,151.253281 
	C311.501160,147.181274 306.882507,143.405823 302.232666,139.738098 
	C302.201538,139.845840 302.321228,139.656143 302.187958,139.357986 
	C299.038391,136.711136 296.022125,134.362427 293.004944,132.005096 
	C293.004059,131.996460 292.986816,131.997269 292.882080,131.733582 
	C292.299286,131.176270 291.821259,130.882660 291.204529,130.326233 
	C290.403687,129.672852 289.741577,129.282318 289.045105,128.937195 
	C289.010773,128.982620 289.104584,128.918045 288.970459,128.607559 
	C285.867920,125.933350 282.899536,123.569626 279.925873,121.124069 
	C279.920593,121.042244 279.758270,121.065880 279.660339,120.770103 
	C278.392273,119.627373 277.222137,118.780418 275.939087,117.704803 
	C275.538910,117.308197 275.251587,117.140266 274.837250,116.669373 
	C271.840973,113.863014 268.971771,111.359612 266.072144,108.907394 
	C266.041718,108.958572 266.142151,108.894615 266.044128,108.582481 
	C264.336273,106.799026 262.726501,105.327705 261.088074,103.896011 
	C261.059418,103.935638 261.155640,103.918221 261.069946,103.659172 
	C260.682037,103.216652 260.379822,103.033173 260.072968,102.894257 
	C260.068359,102.938812 260.145416,102.893112 260.067688,102.590416 
	C258.964081,100.983238 257.938202,99.678764 256.852386,98.081062 
	C256.489044,97.550301 256.185577,97.312759 255.912537,97.098679 
	C255.942947,97.122139 255.866226,97.125557 255.901398,96.744133 
	C254.335159,94.526245 252.733749,92.689781 250.995392,90.665283 
	C250.658676,90.237083 250.433258,90.024071 250.136383,89.494827 
	C249.139832,88.011063 248.189102,86.870651 247.169312,85.350624 
	C246.180099,80.659447 244.942825,76.601242 240.842438,74.013222 
	C239.901733,73.419487 239.781403,71.653656 238.981766,70.673401 
	C238.154053,69.658737 236.959366,68.943413 235.941376,68.074463 
	C235.957565,68.051773 235.901932,68.055122 235.924973,67.750656 
	C235.621689,66.965134 235.295349,66.484077 234.988007,66.004128 
	C235.007004,66.005234 234.982483,66.034416 235.008469,65.626396 
	C234.732269,63.601700 234.556473,61.948982 234.107513,60.374146 
	C231.033920,49.592655 227.893799,38.830151 224.795685,28.055614 
	C223.738037,24.377394 222.739594,20.682152 221.557129,16.617702 
	C221.363403,15.155338 221.326675,14.069957 221.511932,12.646367 
	C221.822617,8.538772 221.911301,4.769386 222.000000,1.000000 
M208.882950,200.522354 
	C208.387970,199.213806 207.438782,197.890839 207.479828,196.599319 
	C207.626236,191.991943 205.268250,191.832901 201.174789,193.165588 
	C195.203308,195.649872 189.142975,197.945587 183.298752,200.699890 
	C180.476913,202.029785 178.393829,201.717606 176.058655,199.922012 
	C171.713760,196.581100 167.316650,193.297058 162.791183,190.209305 
	C161.552643,189.364227 159.669739,188.712555 158.270706,188.975037 
	C148.901169,190.732925 139.552628,201.879074 138.850449,211.295044 
	C138.498688,216.012177 139.954636,218.685104 144.305405,221.150970 
	C147.893921,223.184799 152.066498,227.074829 152.753433,230.746078 
	C154.224701,238.609192 143.557861,244.911652 136.060593,241.889755 
	C132.602554,240.495926 128.195419,239.469620 124.774780,240.375900 
	C117.205170,242.381454 112.411743,252.216751 113.324951,261.562347 
	C114.318871,271.733917 117.960464,275.589752 128.066757,277.179047 
	C129.709152,277.437317 131.442215,277.466644 132.965256,278.044678 
	C134.699692,278.702911 136.502914,279.587128 137.827026,280.845734 
	C142.472733,285.261597 139.786865,290.771790 139.993729,295.952148 
	C136.741089,296.785553 133.654739,297.441895 130.651688,298.368225 
	C114.670555,303.297943 111.080254,312.923401 119.892067,327.070129 
	C120.594337,328.197571 121.420509,329.251312 122.076958,330.403198 
	C124.119743,333.987640 126.746529,335.509064 131.049667,334.074219 
	C134.328186,332.980927 137.870636,332.656403 141.309540,332.071289 
	C150.715988,330.470825 151.950165,331.035858 157.005203,339.826263 
	C159.001419,344.408539 157.775665,348.176239 154.235855,351.492126 
	C151.323669,354.220123 148.475098,357.028229 145.777695,359.965546 
	C145.009628,360.801880 144.200195,362.490021 144.542892,363.319244 
	C148.050903,371.807190 152.777802,379.333740 161.962082,382.743866 
	C168.674271,385.236115 170.560913,384.774231 175.423416,379.309265 
	C177.407776,377.079010 178.716156,374.077057 181.024994,372.355499 
	C183.167938,370.757660 186.368637,369.355743 188.868958,369.679535 
	C197.868866,370.845093 200.133148,374.749817 198.510101,383.918121 
	C197.420746,390.071594 196.707443,396.291626 195.785538,402.765350 
	C203.502182,405.017731 210.272598,407.357513 217.216660,408.930847 
	C226.368256,411.004333 228.322693,409.494843 230.598434,400.512909 
	C231.858841,395.538391 233.179169,390.567627 234.797684,385.703369 
	C235.202545,384.486633 236.954803,382.761810 237.930832,382.858307 
	C241.991928,383.259796 245.993042,384.267792 250.095566,385.731323 
	C250.317825,386.989227 250.255661,388.393372 250.813568,389.478760 
	C252.808868,393.360535 250.668869,399.574005 257.909332,401.115723 
	C265.180786,404.763062 272.679382,402.755707 279.945251,401.524872 
	C307.103851,396.924164 327.678558,382.141815 342.628845,359.387207 
	C356.137848,338.826233 362.621124,315.856842 362.620514,291.464966 
	C362.619904,266.526642 352.052338,245.516602 335.119141,226.937714 
	C334.795135,226.526062 334.471161,226.114410 334.036224,225.032761 
	C326.723083,213.280731 315.997162,205.160202 304.627380,197.852081 
	C284.230713,184.741852 263.250702,172.491013 243.328125,158.705185 
	C224.183197,145.457474 208.572617,128.453491 200.663834,106.066071 
	C196.522156,94.342278 194.574982,81.843246 191.713242,70.010605 
	C190.683929,71.365852 188.628632,73.369438 187.422256,75.795212 
	C184.117630,82.440056 181.170105,89.262489 177.434753,96.354645 
	C177.234268,98.566711 177.033768,100.778786 176.922577,103.756836 
	C176.761856,104.500938 176.601120,105.245033 175.787231,106.151649 
	C174.534637,107.633415 172.120117,109.278999 172.300537,110.558723 
	C172.574295,112.500526 174.650681,114.188179 176.186218,116.614265 
	C176.138519,117.052284 176.090805,117.490303 176.052185,118.646217 
	C176.076981,118.884247 176.101761,119.122284 176.436264,120.001358 
	C176.572174,121.668884 176.708084,123.336418 176.383408,125.593712 
	C175.958679,141.187668 183.287842,154.288193 190.439041,167.247726 
	C192.633408,171.224380 197.313553,173.829376 200.954483,177.071152 
	C200.954483,177.071152 200.931107,177.167831 200.960449,177.945679 
	C201.245728,179.367767 201.062027,181.211411 201.896530,182.139832 
	C205.741867,186.417938 208.208466,192.036270 214.157745,194.380081 
	C215.504364,194.910599 216.077911,197.403427 216.753601,199.554337 
	C216.166611,200.371063 215.579605,201.187790 214.212479,201.891785 
	C212.392532,201.666077 210.572601,201.440369 208.902542,201.095367 
	C208.902542,201.095367 208.794403,201.253479 208.882950,200.522354 
M232.170761,45.026123 
	C232.553802,47.169716 232.936829,49.313313 233.319870,51.456905 
	C233.722733,51.348385 234.125580,51.239864 234.528442,51.131340 
	C234.528442,48.317780 234.528442,45.504215 234.528442,41.504932 
	C233.323639,43.102825 232.871521,43.702446 232.170761,45.026123 
z"/>
<path fill="#EE6039" opacity="1.000000" stroke="none" 
	d="
M221.289932,12.984576 
	C221.326675,14.069957 221.363403,15.155338 221.442856,17.004257 
	C223.358505,34.590992 226.887527,50.951096 234.982483,66.034416 
	C234.982483,66.034416 235.007004,66.005234 234.982895,66.305786 
	C235.273178,67.089256 235.587555,67.572189 235.901932,68.055122 
	C235.901932,68.055122 235.957565,68.051773 235.982544,68.425949 
	C239.045517,74.067993 242.083511,79.335854 245.187866,84.891960 
	C245.538742,85.439819 245.823242,85.699432 246.069000,85.954369 
	C246.030228,85.949684 246.076096,85.886482 246.093460,86.222794 
	C246.560577,86.993904 247.010330,87.428703 247.624908,87.947212 
	C247.985855,88.203606 248.092072,88.420349 248.171722,88.956192 
	C248.504105,89.482422 248.773193,89.733597 249.018219,89.987137 
	C248.994141,89.989502 249.029114,89.955910 249.039169,90.288101 
	C249.753036,91.383095 250.456848,92.145882 251.123642,92.931053 
	C251.086624,92.953430 251.089432,92.866966 251.170532,93.112518 
	C251.524857,93.555199 251.798080,93.752319 252.037186,93.972900 
	C252.003067,93.996353 252.053268,93.930496 252.142487,94.164963 
	C252.497375,94.591698 252.763031,94.783958 253.018478,94.986153 
	C253.008270,94.996086 253.035431,94.976929 253.020935,95.349991 
	C253.500320,99.990692 256.283325,101.979103 260.145416,102.893112 
	C260.145416,102.893112 260.068359,102.938812 260.164154,103.149460 
	C260.558502,103.546143 260.857086,103.732185 261.155640,103.918221 
	C261.155640,103.918221 261.059418,103.935638 261.045746,104.303619 
	C260.729736,108.506279 262.922394,109.321877 266.142151,108.894615 
	C266.142151,108.894615 266.041718,108.958572 266.070496,109.268372 
	C268.432526,112.788322 269.446838,117.579803 274.964294,116.972328 
	C275.251587,117.140266 275.538910,117.308197 276.047180,118.006325 
	C277.431519,119.379639 278.594879,120.222763 279.758270,121.065887 
	C279.758270,121.065880 279.920593,121.042244 279.936829,121.481270 
	C282.311798,125.157547 283.906250,129.394333 289.104584,128.918045 
	C289.104584,128.918045 289.010773,128.982620 289.010437,129.213318 
	C289.006958,129.629349 289.003784,129.814682 289.058533,130.310699 
	C289.744354,131.078705 290.372314,131.536011 291.331421,132.004578 
	C292.104004,132.009659 292.545410,132.003464 292.986816,131.997269 
	C292.986816,131.997269 293.004059,131.996460 293.003723,132.365112 
	C296.109314,135.041229 299.215271,137.348679 302.321228,139.656143 
	C302.321228,139.656143 302.201538,139.845840 302.267883,140.090454 
	C307.015045,144.073318 311.695892,147.811569 316.376709,151.549820 
	C316.376709,151.549820 316.237823,151.550934 316.324890,151.868073 
	C316.745239,152.327713 317.078522,152.470200 317.411774,152.612671 
	C317.411774,152.612671 317.451202,152.614304 317.334473,152.977371 
	C320.184631,155.860657 323.151459,158.380875 326.118286,160.901108 
	C326.302002,160.998444 326.485718,161.095764 326.845093,161.537384 
	C327.020752,161.881653 327.099121,162.041473 326.986389,162.266815 
	C327.216064,163.028534 327.558502,163.564911 327.968262,164.436722 
	C329.709869,166.171448 331.384094,167.570740 333.058289,168.970032 
	C333.058289,168.970032 333.000244,168.994888 332.999969,169.349976 
	C334.148926,170.969437 335.298157,172.233795 336.447388,173.498169 
	C336.447388,173.498169 336.472565,173.568771 336.362366,173.948944 
	C337.273956,175.487793 338.295776,176.646484 339.317596,177.805176 
	C339.317596,177.805176 339.160675,177.914139 339.135925,178.221619 
	C341.539673,182.928574 343.968140,187.328049 346.396637,191.727539 
	C346.396637,191.727539 346.392365,191.878632 346.269226,192.224213 
	C347.147247,196.160324 347.912079,199.840210 349.225342,203.312668 
	C350.251343,206.025635 349.502197,207.020477 346.863556,207.156036 
	C346.863953,207.126419 346.904388,207.083160 346.900696,206.726318 
	C345.498077,205.402679 344.099152,204.435883 342.694458,203.442810 
	C342.688690,203.416534 342.690643,203.362778 342.633484,203.052078 
	C342.022888,202.514603 341.469452,202.287842 340.946930,202.036331 
	C340.977844,202.011597 340.963074,202.089401 340.860168,201.848755 
	C340.469421,201.423340 340.181641,201.238556 339.933228,201.065857 
	C339.972595,201.077942 339.900116,201.117126 339.921875,200.876251 
	C339.580841,200.504135 339.218048,200.372879 338.587555,200.145966 
	C337.959564,199.944458 337.599274,199.838608 337.238983,199.732758 
	C337.238983,199.732758 337.112946,199.819809 337.123596,199.553650 
	C336.860229,199.087830 336.586151,198.888168 336.312103,198.688507 
	C336.312103,198.688507 336.111664,198.688858 336.080933,198.368011 
	C333.373871,195.692749 330.697510,193.338348 328.021149,190.983948 
	C328.021149,190.983948 328.001221,190.999390 327.878662,190.689301 
	C326.217194,189.211182 324.678314,188.043167 323.139435,186.875153 
	C323.139435,186.875153 323.058563,186.987778 323.016357,186.693298 
	C322.684723,186.260056 322.395264,186.121307 322.105835,185.982544 
	C322.105835,185.982544 322.077484,185.895508 321.915192,185.647079 
	C321.266693,185.156235 320.780487,184.913818 320.294281,184.671387 
	C320.294281,184.671387 320.059906,184.805359 320.033142,184.431427 
	C318.367889,183.010437 316.729462,181.963348 315.091003,180.916260 
	C315.091003,180.916260 314.893555,180.665009 314.559906,180.342865 
	C312.244446,178.891632 310.262665,177.762543 308.280853,176.633438 
	C308.280853,176.633438 308.178894,177.004318 308.085602,176.532593 
	C294.683197,168.350708 281.374084,160.640518 268.064972,152.930344 
	C268.064972,152.930344 268.002441,153.000000 267.868103,152.684479 
	C266.606628,151.769806 265.479523,151.170670 264.352386,150.571533 
	C264.235046,150.693817 264.117737,150.816101 264.018921,150.467285 
	C262.034515,148.651932 260.031555,147.307709 258.028625,145.963486 
	C258.028625,145.963486 258.000000,145.999390 257.886108,145.689270 
	C256.531982,144.559586 255.291702,143.740036 254.051437,142.920486 
	C254.051437,142.920486 254.003860,142.992020 253.925812,142.702820 
	C253.357758,142.141479 252.867722,141.869354 252.377701,141.597214 
	C252.377701,141.597214 252.185257,141.897736 252.174118,141.505508 
	C251.938965,140.831207 251.646866,140.692871 251.286667,140.698288 
	C251.286667,140.698288 251.087967,140.684189 251.079254,140.380814 
	C250.084656,139.342621 249.098755,138.607819 248.112854,137.873016 
	C248.112854,137.873016 247.992233,137.979218 247.960403,137.652557 
	C247.318314,136.867416 246.708038,136.408966 246.097763,135.950516 
	C246.097763,135.950516 246.070358,135.926270 245.941193,135.652252 
	C245.197891,134.947189 244.583740,134.516113 243.969604,134.085052 
	C243.485718,133.482162 243.001846,132.879272 242.150848,131.883591 
	C241.177917,130.730576 240.572083,129.970352 239.923950,128.872559 
	C239.239685,128.034943 238.597733,127.534912 237.978455,127.018394 
	C238.001160,127.001915 237.974945,127.051590 237.888153,126.815994 
	C237.537888,126.384193 237.274414,126.187988 237.005463,125.995895 
	C237.000000,126.000000 237.008728,125.989143 236.917358,125.766098 
	C236.642227,125.260765 236.388611,125.072617 236.033340,124.985809 
	C236.001526,124.993004 236.035858,124.937538 236.009628,124.637436 
	C235.597244,123.918686 235.211105,123.500031 234.867584,123.072655 
	C234.910217,123.063934 234.907471,123.150917 234.824600,122.898514 
	C234.458008,122.448219 234.174286,122.250313 233.928345,122.040024 
	C233.966110,122.027634 233.943115,122.103737 233.861893,121.861908 
	C233.517426,121.416367 233.254181,121.212646 232.995468,121.004463 
	C233.000000,121.000000 232.988235,121.007217 233.004547,120.651817 
	C232.318100,119.556412 231.615341,118.816399 230.927460,118.060165 
	C230.942352,118.043930 230.925415,118.065880 230.929977,117.731186 
	C230.230011,116.632706 229.525467,115.868927 228.799530,115.128654 
	C228.778137,115.152161 228.714981,115.159355 228.792221,114.782166 
	C228.233231,111.247887 227.891159,107.885315 223.821533,107.096306 
	C223.845856,107.049149 223.861572,107.154083 223.869354,106.824203 
	C223.465851,106.048180 223.054565,105.602028 222.416077,104.897758 
	C221.098999,102.751625 220.009109,100.863602 218.919250,98.975578 
	C218.751755,98.443459 218.584259,97.911346 218.196396,96.927551 
	C217.749222,96.227486 217.522446,95.979111 217.295654,95.730728 
	C217.295654,95.730728 217.241272,95.859123 217.277802,95.438408 
	C214.455872,85.707237 211.597412,76.396782 208.738953,67.086334 
	C208.664352,66.509483 208.589722,65.932648 208.351746,64.700775 
	C205.601990,44.052231 205.725250,24.349720 214.467911,5.572864 
	C214.467911,5.572864 214.514130,5.482124 214.734985,5.304991 
	C215.190491,4.865582 215.296799,4.558806 215.274780,4.207528 
	C215.274780,4.207528 215.031525,3.985801 215.404892,3.919115 
	C216.185516,2.901621 216.592758,1.950812 217.000000,1.000002 
	C217.750000,1.000000 218.500000,1.000000 219.828812,1.374924 
	C220.701736,5.494757 220.995834,9.239666 221.289932,12.984576 
M296.878754,142.368042 
	C298.514099,137.973312 294.378296,138.955093 292.927216,137.435730 
	C292.570618,137.773071 292.213989,138.110413 291.857391,138.447754 
	C293.331543,139.845139 294.805725,141.242523 296.878754,142.368042 
z"/>
<path fill="#2E092A" opacity="1.000000" stroke="none" 
	d="
M221.511932,12.646367 
	C220.995834,9.239666 220.701736,5.494757 220.203812,1.374924 
	C220.444443,1.000000 220.888901,1.000000 221.666656,1.000000 
	C221.911301,4.769386 221.822617,8.538772 221.511932,12.646367 
z"/>
<path fill="#2C092C" opacity="1.000000" stroke="none" 
	d="
M216.666672,1.000002 
	C216.592758,1.950812 216.185516,2.901621 215.522583,4.032462 
	C215.184204,3.410491 215.101486,2.608488 215.009384,1.403242 
	C215.444443,1.000000 215.888901,1.000000 216.666672,1.000002 
z"/>
<path fill="#FCFCFC" opacity="1.000000" stroke="none" 
	d="
M335.224274,227.478729 
	C352.052338,245.516602 362.619904,266.526642 362.620514,291.464966 
	C362.621124,315.856842 356.137848,338.826233 342.628845,359.387207 
	C327.678558,382.141815 307.103851,396.924164 279.945251,401.524872 
	C272.679382,402.755707 265.180786,404.763062 257.398804,400.664429 
	C256.294952,397.695984 255.515549,395.205292 255.153961,392.655304 
	C254.665863,389.213043 253.802704,386.191223 250.016174,385.053253 
	C245.993042,384.267792 241.991928,383.259796 237.930832,382.858307 
	C236.954803,382.761810 235.202545,384.486633 234.797684,385.703369 
	C233.179169,390.567627 231.858841,395.538391 230.598434,400.512909 
	C228.322693,409.494843 226.368256,411.004333 217.216660,408.930847 
	C210.272598,407.357513 203.502182,405.017731 195.785538,402.765350 
	C196.707443,396.291626 197.420746,390.071594 198.510101,383.918121 
	C200.133148,374.749817 197.868866,370.845093 188.868958,369.679535 
	C186.368637,369.355743 183.167938,370.757660 181.024994,372.355499 
	C178.716156,374.077057 177.407776,377.079010 175.423416,379.309265 
	C170.560913,384.774231 168.674271,385.236115 161.962082,382.743866 
	C152.777802,379.333740 148.050903,371.807190 144.542892,363.319244 
	C144.200195,362.490021 145.009628,360.801880 145.777695,359.965546 
	C148.475098,357.028229 151.323669,354.220123 154.235855,351.492126 
	C157.775665,348.176239 159.001419,344.408539 157.122131,339.169617 
	C157.817551,338.010681 158.396042,337.508362 159.193176,336.890808 
	C159.684692,336.573975 159.882462,336.315063 160.254608,335.999390 
	C160.504089,336.000031 161.003052,336.001221 161.108383,336.387085 
	C167.598999,339.458771 173.804947,337.798279 180.002563,335.998840 
	C180.000000,336.000000 179.996948,336.003662 180.315521,335.966614 
	C181.424561,335.285339 182.215027,334.641083 183.002747,333.998413 
	C183.000000,334.000000 182.996338,334.004883 183.309113,333.949463 
	C184.080429,333.263519 184.538986,332.632996 185.042236,331.650055 
	C185.122772,331.063568 185.158600,330.829498 185.531555,330.714172 
	C192.538223,334.870453 199.109039,339.082855 205.895142,342.913940 
	C229.648071,356.323608 253.080566,354.776337 276.496094,341.007202 
	C278.684937,339.291992 280.537659,337.643982 282.634521,335.902405 
	C282.934509,335.643646 282.990295,335.478485 283.312927,335.185486 
	C285.426819,333.063293 287.273895,331.068939 289.079407,329.059418 
	C289.037811,329.044220 289.072418,329.125702 289.452576,329.103790 
	C293.993774,327.989014 295.518890,324.856506 296.169006,320.623169 
	C299.439819,312.042755 302.645935,303.832275 305.829987,295.613251 
	C308.799500,287.948029 308.255371,280.418213 304.912201,272.640686 
	C302.944305,267.854248 300.961212,263.436432 298.978333,258.723511 
	C298.657654,257.949127 298.336670,257.469849 298.000061,256.629578 
	C296.568329,253.258362 295.152252,250.248138 294.097412,247.117859 
	C295.632446,244.645615 296.806213,242.293396 298.364563,239.170456 
	C292.745605,240.620438 294.679565,244.602554 293.481384,247.189392 
	C292.835327,246.978424 292.472382,246.841171 292.045807,246.490906 
	C291.778534,246.028946 291.516083,245.911560 291.052795,245.616455 
	C282.621429,238.512863 274.332092,231.718567 266.032257,224.961365 
	C266.021790,224.998474 266.081299,224.949432 265.906952,224.657043 
	C260.154266,221.245529 254.575897,218.126389 248.807770,214.781158 
	C248.078415,214.357208 247.538834,214.159393 246.827271,213.734985 
	C246.470993,213.463669 246.286697,213.418945 245.923630,213.222809 
	C245.744843,213.071381 245.276306,213.079971 245.093033,212.874634 
	C244.089172,212.278824 243.268585,211.888367 242.376282,211.579376 
	C242.304581,211.660828 242.389893,211.461243 242.155334,211.218994 
	C238.323380,208.784805 234.725998,206.592850 230.956146,204.209915 
	C230.185608,203.714951 229.587540,203.410965 228.822937,202.899277 
	C228.487228,202.637863 228.318069,202.584152 227.988647,202.267181 
	C226.300140,200.967728 224.771912,199.931519 223.079269,198.595825 
	C215.586929,191.253510 208.259018,184.210678 200.931107,177.167831 
	C200.931107,177.167831 200.954483,177.071152 200.811768,176.744354 
	C188.415756,161.277664 180.286606,144.226669 176.843994,125.003944 
	C176.708084,123.336418 176.572174,121.668884 176.399841,119.515198 
	C176.256653,118.662125 176.149887,118.295227 176.043106,117.928322 
	C176.090805,117.490303 176.138519,117.052284 176.165192,115.884911 
	C176.242905,112.100082 176.341660,109.044609 176.440399,105.989136 
	C176.601120,105.245033 176.761856,104.500938 177.011063,103.003860 
	C177.426773,100.172119 177.753983,98.093369 178.081207,96.014618 
	C181.170105,89.262489 184.117630,82.440056 187.422256,75.795212 
	C188.628632,73.369438 190.683929,71.365852 191.713242,70.010605 
	C194.574982,81.843246 196.522156,94.342278 200.663834,106.066071 
	C208.572617,128.453491 224.183197,145.457474 243.328125,158.705185 
	C263.250702,172.491013 284.230713,184.741852 304.627380,197.852081 
	C315.997162,205.160202 326.723083,213.280731 333.919983,225.694153 
	C330.194580,228.661453 326.585388,230.967377 322.976196,233.273285 
	C323.326630,233.809967 323.677063,234.346649 324.027466,234.883331 
	C327.759735,232.415131 331.492004,229.946930 335.224274,227.478729 
M312.231995,320.998413 
	C309.900787,322.126129 307.569611,323.253815 305.238403,324.381500 
	C305.579407,324.943970 305.920441,325.506439 306.261444,326.068909 
	C308.508850,324.380493 310.756256,322.692078 313.794922,321.005920 
	C315.324402,320.883392 316.853882,320.760864 318.383362,320.638336 
	C318.281494,320.156586 318.179657,319.674835 318.077789,319.193085 
	C316.384583,319.794495 314.691345,320.395935 312.231995,320.998413 
M320.325897,239.126999 
	C318.051697,241.801910 315.777496,244.476807 312.707977,248.087189 
	C318.356628,246.524155 320.280792,243.299271 321.365845,238.757156 
	C321.357544,238.445984 321.349243,238.134796 321.340973,237.823624 
	C321.227325,238.215958 321.113678,238.608276 320.325897,239.126999 
M344.221375,314.019928 
	C339.406677,315.323456 334.591949,316.626953 329.746155,317.938904 
	C333.920380,319.554169 341.975189,317.461090 345.672516,313.867310 
	C346.468079,312.601624 347.263672,311.335968 348.059265,310.070282 
	C347.564789,309.828033 347.070282,309.585754 346.575806,309.343506 
	C346.050537,310.895660 345.525299,312.447845 344.221375,314.019928 
M354.804993,303.821259 
	C348.602356,300.610931 348.350281,300.663544 346.471710,306.419983 
	C350.703613,302.158997 353.378265,305.750214 357.131805,306.856018 
	C356.583130,305.918976 356.034454,304.981903 354.804993,303.821259 
M309.284637,247.824966 
	C309.656616,247.579178 310.028595,247.333389 310.400574,247.087616 
	C307.627106,245.071762 304.853607,243.055923 302.080139,241.040070 
	C301.725403,241.594620 301.370697,242.149155 301.015961,242.703690 
	C303.555969,244.366714 306.095978,246.029724 309.284637,247.824966 
M304.886871,329.555328 
	C304.717712,328.881805 304.548553,328.208282 304.379395,327.534760 
	C304.705566,328.057587 305.031708,328.580414 305.357849,329.103210 
	C303.696198,329.748169 302.034546,330.393127 300.372925,331.038055 
	C300.601746,331.390961 300.830597,331.743896 301.059418,332.096802 
	C302.277466,331.479950 303.495514,330.863098 304.886871,329.555328 
M321.927643,319.675232 
	C322.428986,319.496277 322.930328,319.317291 323.431702,319.138336 
	C323.170624,318.835175 322.909546,318.532043 322.648468,318.228882 
	C322.277222,318.574890 321.905945,318.920929 321.927643,319.675232 
M327.548309,318.820984 
	C327.193115,318.816223 326.837738,318.808197 326.483582,318.825226 
	C326.474518,318.825653 326.468475,319.229309 326.478088,319.230072 
	C326.831543,319.258209 327.187042,319.260864 327.548309,318.820984 
M297.695465,329.477905 
	C297.883453,329.466797 298.071411,329.455688 298.259399,329.444611 
	C298.133789,329.388641 298.008209,329.332642 297.695465,329.477905 
z"/>
<path fill="#060444" opacity="1.000000" stroke="none" 
	d="
M304.896973,273.009338 
	C308.255371,280.418213 308.799500,287.948029 305.829987,295.613251 
	C302.645935,303.832275 299.439819,312.042755 295.848145,320.757324 
	C293.326080,323.880402 291.199249,326.503052 289.072418,329.125702 
	C289.072418,329.125702 289.037811,329.044220 288.677673,329.048096 
	C286.734497,329.409851 284.926971,329.403931 283.620422,330.209991 
	C281.604858,331.453552 279.934479,333.253326 283.046082,335.313354 
	C282.990295,335.478485 282.934509,335.643646 282.229065,335.906250 
	C279.393890,337.288879 274.387909,335.559601 276.159943,341.074463 
	C253.080566,354.776337 229.648071,356.323608 205.895142,342.913940 
	C199.109039,339.082855 192.538223,334.870453 185.489563,330.360016 
	C181.517105,322.416931 176.728073,315.267517 174.617371,307.399567 
	C171.628311,296.257446 170.597687,284.588043 168.797028,273.133484 
	C168.681763,272.400330 169.010025,271.512360 169.354889,270.805145 
	C172.697266,263.950897 175.833176,256.978821 179.530426,250.319275 
	C183.800278,242.628342 188.517517,235.165970 196.978394,231.024231 
	C200.702911,232.278854 201.831223,230.974854 201.329498,226.444916 
	C201.386322,226.365524 201.575394,226.316711 201.963760,226.484955 
	C205.361282,226.071503 208.771378,226.193924 211.293930,224.757584 
	C216.140839,221.997757 220.484726,218.354462 225.028076,215.042862 
	C225.018875,215.008087 225.084442,215.037659 225.443359,215.016586 
	C228.783279,214.247528 228.156479,212.975830 226.441971,211.322052 
	C225.319641,210.239456 224.436066,208.909317 223.445557,207.690048 
	C223.333054,207.893112 223.220551,208.096176 223.108047,208.299255 
	C220.402893,206.201004 217.697739,204.102768 214.992599,202.004517 
	C215.579605,201.187790 216.166611,200.371063 217.134338,199.388245 
	C218.008835,199.479218 218.502579,199.736267 219.125183,200.276123 
	C220.053497,201.451340 220.534729,204.359894 222.362686,201.047333 
	C225.477661,202.733963 228.236404,204.366638 231.155441,206.228836 
	C235.007111,208.125992 238.698502,209.793610 242.389893,211.461243 
	C242.389893,211.461243 242.304581,211.660828 242.363556,211.942902 
	C242.991028,213.787506 243.386505,215.927597 245.276306,213.079971 
	C245.276306,213.079971 245.744843,213.071381 245.927582,213.436737 
	C246.406631,213.855255 246.702927,213.908401 246.999237,213.961548 
	C247.538834,214.159393 248.078415,214.357208 248.819214,215.163605 
	C251.096420,217.297134 253.417419,218.582626 255.193893,220.400299 
	C258.245422,223.522583 262.043304,224.420410 266.081299,224.949432 
	C266.081299,224.949432 266.021790,224.998474 266.020142,225.375885 
	C266.876953,227.478119 267.340576,229.636688 268.668671,230.845627 
	C272.495209,234.328857 277.782104,236.723312 280.412689,240.867462 
	C283.349579,245.494186 286.694672,246.185303 291.194794,245.925720 
	C291.516083,245.911560 291.778534,246.028946 292.024292,246.883850 
	C293.086151,251.259964 293.965485,255.118042 298.015717,256.990540 
	C298.336670,257.469849 298.657654,257.949127 298.724854,258.980469 
	C299.302277,262.998199 300.446014,266.426514 300.866119,269.941345 
	C301.204498,272.772614 302.685394,273.132904 304.896973,273.009338 
z"/>
<path fill="#FBFBFC" opacity="1.000000" stroke="none" 
	d="
M196.713318,230.867584 
	C188.517517,235.165970 183.800278,242.628342 179.530426,250.319275 
	C175.833176,256.978821 172.697266,263.950897 169.354889,270.805145 
	C169.010025,271.512360 168.681763,272.400330 168.797028,273.133484 
	C170.597687,284.588043 171.628311,296.257446 174.617371,307.399567 
	C176.728073,315.267517 181.517105,322.416931 185.152435,330.241272 
	C185.158600,330.829498 185.122772,331.063568 184.729156,331.702515 
	C183.913025,332.739838 183.454681,333.372345 182.996338,334.004883 
	C182.996338,334.004883 183.000000,334.000000 182.653320,334.006989 
	C181.536743,334.677216 180.766846,335.340454 179.996948,336.003662 
	C179.996948,336.003662 180.000000,336.000000 179.533691,335.997864 
	C173.045944,335.997559 167.024490,335.999390 161.003052,336.001221 
	C161.003052,336.001221 160.504089,336.000031 160.039215,336.118225 
	C159.307404,336.440735 159.107452,336.697296 158.974518,337.006073 
	C158.396042,337.508362 157.817551,338.010681 157.110733,338.775757 
	C151.950165,331.035858 150.715988,330.470825 141.309540,332.071289 
	C137.870636,332.656403 134.328186,332.980927 131.049667,334.074219 
	C126.746529,335.509064 124.119743,333.987640 122.076958,330.403198 
	C121.420509,329.251312 120.594337,328.197571 119.892067,327.070129 
	C111.080254,312.923401 114.670555,303.297943 130.651688,298.368225 
	C133.654739,297.441895 136.741089,296.785553 139.993729,295.952148 
	C139.786865,290.771790 142.472733,285.261597 137.827026,280.845734 
	C136.502914,279.587128 134.699692,278.702911 132.965256,278.044678 
	C131.442215,277.466644 129.709152,277.437317 128.066757,277.179047 
	C117.960464,275.589752 114.318871,271.733917 113.324951,261.562347 
	C112.411743,252.216751 117.205170,242.381454 124.774780,240.375900 
	C128.195419,239.469620 132.602554,240.495926 136.060593,241.889755 
	C143.557861,244.911652 154.224701,238.609192 152.753433,230.746078 
	C152.066498,227.074829 147.893921,223.184799 144.305405,221.150970 
	C139.954636,218.685104 138.498688,216.012177 138.850449,211.295044 
	C139.552628,201.879074 148.901169,190.732925 158.270706,188.975037 
	C159.669739,188.712555 161.552643,189.364227 162.791183,190.209305 
	C167.316650,193.297058 171.713760,196.581100 176.058655,199.922012 
	C178.393829,201.717606 180.476913,202.029785 183.298752,200.699890 
	C189.142975,197.945587 195.203308,195.649872 201.642715,193.437958 
	C204.338562,196.224716 206.566483,198.739105 208.794403,201.253479 
	C208.794403,201.253479 208.902542,201.095367 208.968048,201.463654 
	C213.455978,205.029312 217.932907,208.155502 222.264694,211.471298 
	C223.431122,212.364151 224.156570,213.833130 225.084442,215.037659 
	C225.084442,215.037659 225.018875,215.008087 224.686386,215.115585 
	C216.761063,218.920944 209.168228,222.618820 201.575378,226.316711 
	C201.575394,226.316711 201.386322,226.365524 201.106537,226.664398 
	C199.455597,228.264694 198.084457,229.566147 196.713318,230.867584 
M161.207718,272.518219 
	C160.146790,273.980591 159.085861,275.442963 157.456436,277.688934 
	C161.992844,275.923218 164.266205,271.357056 163.703201,265.131073 
	C162.694565,268.249237 162.111832,270.050751 161.207718,272.518219 
z"/>
<path fill="#0D0C3C" opacity="1.000000" stroke="none" 
	d="
M176.613708,125.298828 
	C180.286606,144.226669 188.415756,161.277664 200.762222,176.740021 
	C197.313553,173.829376 192.633408,171.224380 190.439041,167.247726 
	C183.287842,154.288193 175.958679,141.187668 176.613708,125.298828 
z"/>
<path fill="#2C092C" opacity="1.000000" stroke="none" 
	d="
M214.104706,5.456192 
	C205.725250,24.349720 205.601990,44.052231 208.148666,64.485214 
	C207.438751,63.649937 206.318832,62.426472 206.166748,61.092648 
	C204.308838,44.799625 204.302200,28.595657 209.662827,12.842484 
	C210.566666,10.186419 212.359436,7.832853 214.104706,5.456192 
z"/>
<path fill="#2F0C2E" opacity="1.000000" stroke="none" 
	d="
M268.082184,153.282684 
	C281.374084,160.640518 294.683197,168.350708 308.147461,176.349701 
	C305.506073,175.873627 302.405945,175.641068 299.966461,174.250015 
	C290.326324,168.752975 280.866241,162.936600 271.414490,157.116730 
	C270.095093,156.304306 269.194092,154.812393 268.082184,153.282684 
z"/>
<path fill="#2E092A" opacity="1.000000" stroke="none" 
	d="
M235.008469,65.626396 
	C226.887527,50.951096 223.358505,34.590992 221.599823,17.381241 
	C222.739594,20.682152 223.738037,24.377394 224.795685,28.055614 
	C227.893799,38.830151 231.033920,49.592655 234.107513,60.374146 
	C234.556473,61.948982 234.732269,63.601700 235.008469,65.626396 
z"/>
<path fill="#0D0C3C" opacity="1.000000" stroke="none" 
	d="
M218.996338,199.993317 
	C218.502579,199.736267 218.008835,199.479218 217.261200,199.107574 
	C216.077911,197.403427 215.504364,194.910599 214.157745,194.380081 
	C208.208466,192.036270 205.741867,186.417938 201.896530,182.139832 
	C201.062027,181.211411 201.245728,179.367767 200.945770,177.556763 
	C208.259018,184.210678 215.586929,191.253510 222.705826,198.622650 
	C221.997803,198.966370 221.498810,198.983795 220.706833,199.029205 
	C219.941345,199.369232 219.468842,199.681274 218.996338,199.993317 
z"/>
<path fill="#0D0C3D" opacity="1.000000" stroke="none" 
	d="
M225.443359,215.016586 
	C224.156570,213.833130 223.431122,212.364151 222.264694,211.471298 
	C217.932907,208.155502 213.455978,205.029312 208.893097,201.523285 
	C210.572601,201.440369 212.392532,201.666077 214.602539,201.948151 
	C217.697739,204.102768 220.402893,206.201004 223.108047,208.299255 
	C223.220551,208.096176 223.333054,207.893112 223.445557,207.690048 
	C224.436066,208.909317 225.319641,210.239456 226.441971,211.322052 
	C228.156479,212.975830 228.783279,214.247528 225.443359,215.016586 
z"/>
<path fill="#2C092C" opacity="1.000000" stroke="none" 
	d="
M208.516876,67.397377 
	C211.597412,76.396782 214.455872,85.707237 217.336395,95.400635 
	C215.574356,92.506920 213.170959,89.411934 212.144577,85.913002 
	C210.403870,79.978996 209.531921,73.790154 208.516876,67.397377 
z"/>
<path fill="#10103A" opacity="1.000000" stroke="none" 
	d="
M250.055878,385.392273 
	C253.802704,386.191223 254.665863,389.213043 255.153961,392.655304 
	C255.515549,395.205292 256.294952,397.695984 257.032166,400.570984 
	C250.668869,399.574005 252.808868,393.360535 250.813568,389.478760 
	C250.255661,388.393372 250.317825,386.989227 250.055878,385.392273 
z"/>
<path fill="#2E092A" opacity="1.000000" stroke="none" 
	d="
M245.121521,84.603722 
	C242.083511,79.335854 239.045517,74.067993 235.966354,68.448639 
	C236.959366,68.943413 238.154053,69.658737 238.981766,70.673401 
	C239.781403,71.653656 239.901733,73.419487 240.842438,74.013222 
	C244.942825,76.601242 246.180099,80.659447 247.088852,85.441055 
	C247.077438,85.911110 246.914139,86.084068 246.704834,86.033829 
	C246.495514,85.983582 246.076096,85.886482 246.076096,85.886482 
	C246.076096,85.886482 246.030228,85.949684 245.997208,85.669647 
	C245.683289,85.127647 245.402405,84.865685 245.121521,84.603722 
z"/>
<path fill="#D3604C" opacity="1.000000" stroke="none" 
	d="
M316.248291,151.253281 
	C311.695892,147.811569 307.015045,144.073318 302.299011,139.982712 
	C306.882507,143.405823 311.501160,147.181274 316.248291,151.253281 
z"/>
<path fill="#D5624F" opacity="1.000000" stroke="none" 
	d="
M346.863159,207.185638 
	C349.502197,207.020477 350.251343,206.025635 349.225342,203.312668 
	C347.912079,199.840210 347.147247,196.160324 346.246826,192.152054 
	C347.755219,195.898209 349.162933,200.062119 350.682617,204.927521 
	C350.584106,207.248611 350.373566,208.868240 350.163055,210.487854 
	C350.013855,210.349670 349.864685,210.211487 349.325378,209.709839 
	C348.617737,209.236313 348.300140,209.126251 347.982574,209.016190 
	C347.982574,209.016190 348.000000,209.000610 347.885071,208.759705 
	C347.467804,208.074417 347.165466,207.630020 346.863159,207.185638 
z"/>
<path fill="#0D0C3C" opacity="1.000000" stroke="none" 
	d="
M176.113815,106.070389 
	C176.341660,109.044609 176.242905,112.100082 176.052734,115.569679 
	C174.650681,114.188179 172.574295,112.500526 172.300537,110.558723 
	C172.120117,109.278999 174.534637,107.633415 176.113815,106.070389 
z"/>
<path fill="#2F0C2E" opacity="1.000000" stroke="none" 
	d="
M346.863556,207.156036 
	C347.165466,207.630020 347.467804,208.074417 347.878662,208.769348 
	C345.932892,208.720291 343.878540,208.420715 341.914368,208.134277 
	C340.391968,205.659470 338.791382,203.057571 337.214905,200.094223 
	C337.599274,199.838608 337.959564,199.944458 338.689148,200.367615 
	C339.271179,200.961136 339.551727,201.105209 339.900116,201.117126 
	C339.900116,201.117126 339.972595,201.077942 340.005463,201.327454 
	C340.346588,201.747787 340.654816,201.918594 340.963074,202.089401 
	C340.963074,202.089401 340.977844,202.011597 341.059875,202.320190 
	C341.658142,202.873444 342.174377,203.118118 342.690643,203.362778 
	C342.690643,203.362778 342.688690,203.416534 342.772461,203.738235 
	C344.205597,205.067673 345.554993,206.075424 346.904388,207.083160 
	C346.904388,207.083160 346.863953,207.126419 346.863556,207.156036 
z"/>
<path fill="#F1F1F2" opacity="1.000000" stroke="none" 
	d="
M335.171692,227.208221 
	C331.492004,229.946930 327.759735,232.415131 324.027466,234.883331 
	C323.677063,234.346649 323.326630,233.809967 322.976196,233.273285 
	C326.585388,230.967377 330.194580,228.661453 333.975464,226.029144 
	C334.471161,226.114410 334.795135,226.526062 335.171692,227.208221 
z"/>
<path fill="#0D0C3D" opacity="1.000000" stroke="none" 
	d="
M208.838684,200.887909 
	C206.566483,198.739105 204.338562,196.224716 201.998962,193.389648 
	C205.268250,191.832901 207.626236,191.991943 207.479828,196.599319 
	C207.438782,197.890839 208.387970,199.213806 208.838684,200.887909 
z"/>
<path fill="#2C092C" opacity="1.000000" stroke="none" 
	d="
M218.683624,99.219131 
	C220.009109,100.863602 221.098999,102.751625 222.479889,105.196503 
	C223.134460,106.220268 223.498016,106.687180 223.861572,107.154083 
	C223.861572,107.154083 223.845856,107.049149 223.857529,107.406517 
	C224.159775,108.540848 224.450333,109.317810 224.740891,110.094772 
	C220.528488,107.802422 219.017700,103.911057 218.683624,99.219131 
z"/>
<path fill="#D5624F" opacity="1.000000" stroke="none" 
	d="
M346.348755,191.359192 
	C343.968140,187.328049 341.539673,182.928574 339.192627,178.144745 
	C341.616333,182.170563 343.958588,186.580704 346.348755,191.359192 
z"/>
<path fill="#D4614B" opacity="1.000000" stroke="none" 
	d="
M274.837250,116.669373 
	C269.446838,117.579803 268.432526,112.788322 266.100891,109.217194 
	C268.971771,111.359612 271.840973,113.863014 274.837250,116.669373 
z"/>
<path fill="#D3604C" opacity="1.000000" stroke="none" 
	d="
M325.982117,160.596802 
	C323.151459,158.380875 320.184631,155.860657 317.343811,152.959961 
	C320.261902,155.150497 323.053925,157.721497 325.982117,160.596802 
z"/>
<path fill="#0F0134" opacity="1.000000" stroke="none" 
	d="
M232.295090,44.664093 
	C232.871521,43.702446 233.323639,43.102825 234.528442,41.504932 
	C234.528442,45.504215 234.528442,48.317780 234.528442,51.131340 
	C234.125580,51.239864 233.722733,51.348385 233.319870,51.456905 
	C232.936829,49.313313 232.553802,47.169716 232.295090,44.664093 
z"/>
<path fill="#D3604C" opacity="1.000000" stroke="none" 
	d="
M288.970459,128.607559 
	C283.906250,129.394333 282.311798,125.157547 279.942078,121.563095 
	C282.899536,123.569626 285.867920,125.933350 288.970459,128.607559 
z"/>
<path fill="#D3604C" opacity="1.000000" stroke="none" 
	d="
M302.187958,139.357986 
	C299.215271,137.348679 296.109314,135.041229 293.004578,132.373749 
	C296.022125,134.362427 299.038391,136.711136 302.187958,139.357986 
z"/>
<path fill="#2F0C2E" opacity="1.000000" stroke="none" 
	d="
M328.041443,191.336945 
	C330.697510,193.338348 333.373871,195.692749 336.178345,198.344376 
	C331.762085,198.454590 329.899933,195.086426 328.041443,191.336945 
z"/>
<path fill="#D4614B" opacity="1.000000" stroke="none" 
	d="
M260.067688,102.590416 
	C256.283325,101.979103 253.500320,99.990692 253.292709,95.482735 
	C254.341385,95.870125 255.103806,96.497841 255.866226,97.125557 
	C255.866226,97.125557 255.942947,97.122139 255.980377,97.382675 
	C256.315979,97.886909 256.614136,98.130600 256.912292,98.374290 
	C257.938202,99.678764 258.964081,100.983238 260.067688,102.590416 
z"/>
<path fill="#D36353" opacity="1.000000" stroke="none" 
	d="
M224.855469,110.258957 
	C224.450333,109.317810 224.159775,108.540848 223.833221,107.453674 
	C227.891159,107.885315 228.233231,111.247887 228.546021,114.621544 
	C227.525162,114.186211 226.827759,113.534309 226.130356,112.882408 
	C226.130356,112.882408 226.022720,112.931023 226.059998,112.616402 
	C225.742355,111.807411 225.387405,111.313034 225.032471,110.818665 
	C225.032471,110.818665 224.970062,110.423134 224.855469,110.258957 
z"/>
<path fill="#D4614B" opacity="1.000000" stroke="none" 
	d="
M266.044128,108.582481 
	C262.922394,109.321877 260.729736,108.506279 261.074402,104.263992 
	C262.726501,105.327705 264.336273,106.799026 266.044128,108.582481 
z"/>
<path fill="#2C092C" opacity="1.000000" stroke="none" 
	d="
M239.966263,129.210129 
	C240.572083,129.970352 241.177917,130.730576 241.881927,131.766220 
	C238.154205,133.263199 237.226364,130.947525 236.930115,127.463898 
	C236.951309,127.040993 237.077316,126.925629 237.298538,126.979813 
	C237.519760,127.033989 237.974945,127.051590 237.974945,127.051590 
	C237.974945,127.051590 238.001160,127.001915 238.060913,127.314301 
	C238.735870,128.154510 239.351059,128.682312 239.966263,129.210129 
z"/>
<path fill="#2C092C" opacity="1.000000" stroke="none" 
	d="
M234.888367,125.127380 
	C231.848999,125.326157 230.649490,123.811676 231.025101,120.408127 
	C231.098984,119.916977 231.308014,119.731476 231.531647,119.880722 
	C232.166275,120.355713 232.577255,120.681465 232.988235,121.007217 
	C232.988235,121.007217 233.000000,121.000000 233.052063,121.264809 
	C233.383804,121.720993 233.663452,121.912369 233.943115,122.103737 
	C233.943115,122.103737 233.966110,122.027634 233.984070,122.313423 
	C234.303848,122.783112 234.605652,122.967010 234.907471,123.150917 
	C234.907471,123.150917 234.910217,123.063934 234.883820,123.364777 
	C234.979050,124.035240 235.100677,124.404869 235.138153,124.862076 
	C235.054001,124.949661 234.888367,125.127380 234.888367,125.127380 
z"/>
<path fill="#2F0C2E" opacity="1.000000" stroke="none" 
	d="
M258.045807,146.318054 
	C260.031555,147.307709 262.034515,148.651932 264.188019,150.277176 
	C262.246704,149.262985 260.154846,147.967789 258.045807,146.318054 
z"/>
<path fill="#2E092A" opacity="1.000000" stroke="none" 
	d="
M255.901398,96.744133 
	C255.103806,96.497841 254.341385,95.870125 253.307190,95.109665 
	C253.035431,94.976929 253.008270,94.996086 252.959625,94.728699 
	C252.625061,94.284370 252.339172,94.107430 252.053268,93.930496 
	C252.053268,93.930496 252.003067,93.996353 251.982269,93.709351 
	C251.670807,93.237221 251.380112,93.052094 251.089432,92.866966 
	C251.089432,92.866966 251.086624,92.953430 251.095428,92.643555 
	C250.977142,91.970482 250.850052,91.607285 250.826477,91.147629 
	C250.929993,91.051170 251.132355,90.853325 251.132355,90.853325 
	C252.733749,92.689781 254.335159,94.526245 255.901398,96.744133 
z"/>
<path fill="#2F0C2E" opacity="1.000000" stroke="none" 
	d="
M315.099640,181.295609 
	C316.729462,181.963348 318.367889,183.010437 320.137878,184.346283 
	C317.472412,185.525482 315.747131,184.547318 315.099640,181.295609 
z"/>
<path fill="#2F0C2E" opacity="1.000000" stroke="none" 
	d="
M308.319397,177.006866 
	C310.262665,177.762543 312.244446,178.891632 314.403015,180.312683 
	C312.505829,179.529846 310.431885,178.455063 308.319397,177.006866 
z"/>
<path fill="#D5624F" opacity="1.000000" stroke="none" 
	d="
M332.984253,168.651062 
	C331.384094,167.570740 329.709869,166.171448 327.995300,164.409027 
	C327.954987,164.045883 328.009277,163.990646 328.262024,163.993469 
	C328.683258,163.994995 328.851776,163.993713 329.020264,163.992432 
	C330.316925,165.438980 331.613586,166.885529 332.984253,168.651062 
z"/>
<path fill="#2F0C2E" opacity="1.000000" stroke="none" 
	d="
M350.216766,210.787857 
	C350.373566,208.868240 350.584106,207.248611 350.832520,205.272583 
	C351.550262,206.654587 352.230103,208.393005 352.909973,210.131439 
	C352.030121,210.450256 351.150299,210.769058 350.216766,210.787857 
z"/>
<path fill="#2F0C2E" opacity="1.000000" stroke="none" 
	d="
M323.101532,187.249374 
	C324.678314,188.043167 326.217194,189.211182 327.885864,190.678925 
	C326.364929,189.860291 324.714294,188.741928 323.101532,187.249374 
z"/>
<path fill="#0D0C3C" opacity="1.000000" stroke="none" 
	d="
M177.757965,96.184631 
	C177.753983,98.093369 177.426773,100.172119 176.966415,102.620865 
	C177.033768,100.778786 177.234268,98.566711 177.757965,96.184631 
z"/>
<path fill="#D5624F" opacity="1.000000" stroke="none" 
	d="
M336.379272,173.189331 
	C335.298157,172.233795 334.148926,170.969437 333.017059,169.323410 
	C334.126678,170.254669 335.218933,171.567581 336.379272,173.189331 
z"/>
<path fill="#2C092C" opacity="1.000000" stroke="none" 
	d="
M226.097046,113.267395 
	C226.827759,113.534309 227.525162,114.186211 228.468781,114.998734 
	C228.714981,115.159355 228.778137,115.152161 228.808746,115.424858 
	C228.962158,116.072853 229.084961,116.448143 229.119904,116.900375 
	C229.032043,116.977318 228.856888,117.131805 228.856888,117.131805 
	C227.925842,115.972000 226.994797,114.812195 226.097046,113.267395 
z"/>
<path fill="#D5624F" opacity="1.000000" stroke="none" 
	d="
M339.263245,177.478149 
	C338.295776,176.646484 337.273956,175.487793 336.381897,173.980927 
	C337.410736,174.805527 338.309814,175.978317 339.263245,177.478149 
z"/>
<path fill="#2E092A" opacity="1.000000" stroke="none" 
	d="
M248.108414,88.681145 
	C248.092072,88.420349 247.985855,88.203606 247.529358,87.650787 
	C247.150711,86.875122 247.032425,86.479591 246.914139,86.084068 
	C246.914139,86.084068 247.077438,85.911110 247.157898,85.820679 
	C248.189102,86.870651 249.139832,88.011063 250.055588,89.571152 
	C250.020615,89.990837 249.862854,90.147392 249.656387,90.090942 
	C249.449921,90.034485 249.029114,89.955910 249.029114,89.955910 
	C249.029114,89.955910 248.994141,89.989502 248.960342,89.710159 
	C248.653839,89.180923 248.381119,88.931038 248.108414,88.681145 
z"/>
<path fill="#2F0C2E" opacity="1.000000" stroke="none" 
	d="
M254.067657,143.282608 
	C255.291702,143.740036 256.531982,144.559586 257.902985,145.674011 
	C256.717102,145.194153 255.400482,144.419434 254.067657,143.282608 
z"/>
<path fill="#2F0C2E" opacity="1.000000" stroke="none" 
	d="
M248.114502,138.231873 
	C249.098755,138.607819 250.084656,139.342621 251.178070,140.368027 
	C250.229095,139.969330 249.172623,139.280029 248.114502,138.231873 
z"/>
<path fill="#D3604C" opacity="1.000000" stroke="none" 
	d="
M279.660339,120.770111 
	C278.594879,120.222763 277.431519,119.379639 276.160065,118.234993 
	C277.222137,118.780418 278.392273,119.627373 279.660339,120.770111 
z"/>
<path fill="#2F0C2E" opacity="1.000000" stroke="none" 
	d="
M264.378815,150.935501 
	C265.479523,151.170670 266.606628,151.769806 267.897827,152.649567 
	C266.843018,152.386627 265.624115,151.843048 264.378815,150.935501 
z"/>
<path fill="#2C092C" opacity="1.000000" stroke="none" 
	d="
M230.994995,120.010315 
	C230.250946,119.330833 229.610870,118.558006 228.913849,117.458488 
	C228.856888,117.131805 229.032043,116.977318 229.349609,117.048508 
	C230.086594,117.435097 230.505997,117.750488 230.925415,118.065880 
	C230.925415,118.065880 230.942352,118.043930 230.938324,118.346565 
	C231.058868,119.009964 231.183441,119.370720 231.308014,119.731476 
	C231.308014,119.731476 231.098984,119.916977 230.994995,120.010315 
z"/>
<path fill="#D3604C" opacity="1.000000" stroke="none" 
	d="
M289.000641,130.000000 
	C289.003784,129.814682 289.006958,129.629349 289.044800,129.167908 
	C289.741577,129.282318 290.403687,129.672852 291.113983,130.436096 
	C291.162170,130.808792 290.974274,131.019241 290.724182,130.898254 
	C289.982910,130.518173 289.491791,130.259079 289.000641,130.000000 
z"/>
<path fill="#D5624F" opacity="1.000000" stroke="none" 
	d="
M327.927948,164.073578 
	C327.558502,163.564911 327.216064,163.028534 327.034271,162.259766 
	C327.194885,162.027390 327.290894,162.018631 327.290894,162.018631 
	C327.453033,162.136948 327.615204,162.255264 327.893524,162.913727 
	C328.009521,163.632812 328.009399,163.811737 328.009277,163.990646 
	C328.009277,163.990646 327.954987,164.045883 327.927948,164.073578 
z"/>
<path fill="#2F0C2E" opacity="1.000000" stroke="none" 
	d="
M246.118561,136.275513 
	C246.708038,136.408966 247.318314,136.867416 248.024506,137.605377 
	C247.460068,137.456757 246.799713,137.028625 246.118561,136.275513 
z"/>
<path fill="#2F0C2E" opacity="1.000000" stroke="none" 
	d="
M244.017792,134.397644 
	C244.583740,134.516113 245.197891,134.947189 245.926666,135.641144 
	C245.382843,135.506119 244.724411,135.108170 244.017792,134.397644 
z"/>
<path fill="#2C092C" opacity="1.000000" stroke="none" 
	d="
M225.020844,111.147156 
	C225.387405,111.313034 225.742355,111.807411 226.119034,112.614761 
	C225.763580,112.443710 225.386398,111.959679 225.020844,111.147156 
z"/>
<path fill="#2E092A" opacity="1.000000" stroke="none" 
	d="
M235.924973,67.750656 
	C235.587555,67.572189 235.273178,67.089256 234.963898,66.304672 
	C235.295349,66.484077 235.621689,66.965134 235.924973,67.750656 
z"/>
<path fill="#2F0C2E" opacity="1.000000" stroke="none" 
	d="
M320.352905,184.967834 
	C320.780487,184.913818 321.266693,185.156235 321.869446,185.649139 
	C321.461182,185.687866 320.936371,185.476074 320.352905,184.967834 
z"/>
<path fill="#2F0C2E" opacity="1.000000" stroke="none" 
	d="
M252.407227,141.914032 
	C252.867722,141.869354 253.357758,142.141479 253.961151,142.678406 
	C253.528610,142.705765 252.982681,142.468307 252.407227,141.914032 
z"/>
<path fill="#D3604C" opacity="1.000000" stroke="none" 
	d="
M292.882080,131.733582 
	C292.545410,132.003464 292.104004,132.009659 291.327393,131.761017 
	C290.992188,131.506210 290.974274,131.019241 290.974274,131.019241 
	C290.974274,131.019241 291.162170,130.808792 291.252686,130.698929 
	C291.821259,130.882660 292.299286,131.176270 292.882080,131.733582 
z"/>
<path fill="#D3604C" opacity="1.000000" stroke="none" 
	d="
M327.341980,161.905518 
	C327.290894,162.018631 327.194885,162.027390 327.147003,162.034424 
	C327.099121,162.041473 327.020752,161.881653 327.021240,161.794769 
	C327.021729,161.707870 327.393097,161.792419 327.341980,161.905518 
z"/>
<path fill="#0D0C3C" opacity="1.000000" stroke="none" 
	d="
M176.047638,118.287270 
	C176.149887,118.295227 176.256653,118.662125 176.244995,119.194672 
	C176.101761,119.122284 176.076981,118.884247 176.047638,118.287270 
z"/>
<path fill="#2C092C" opacity="1.000000" stroke="none" 
	d="
M217.288025,95.997284 
	C217.522446,95.979111 217.749222,96.227486 217.988037,96.739258 
	C217.760162,96.756378 217.520279,96.510109 217.288025,95.997284 
z"/>
<path fill="#2E092A" opacity="1.000000" stroke="none" 
	d="
M256.852386,98.081062 
	C256.614136,98.130600 256.315979,97.886909 255.949982,97.359222 
	C256.185577,97.312759 256.489044,97.550301 256.852386,98.081062 
z"/>
<path fill="#D4614B" opacity="1.000000" stroke="none" 
	d="
M261.069946,103.659172 
	C260.857086,103.732185 260.558502,103.546143 260.168762,103.104904 
	C260.379822,103.033173 260.682037,103.216652 261.069946,103.659172 
z"/>
<path fill="#2F0C2E" opacity="1.000000" stroke="none" 
	d="
M322.192017,186.212524 
	C322.395264,186.121307 322.684723,186.260056 323.051208,186.637756 
	C322.772217,186.874176 322.488861,186.729446 322.192017,186.212524 
z"/>
<path fill="#D3604C" opacity="1.000000" stroke="none" 
	d="
M317.330658,152.363388 
	C317.078522,152.470200 316.745239,152.327713 316.389465,151.893707 
	C316.661133,151.772827 316.955322,151.943466 317.330658,152.363388 
z"/>
<path fill="#2E092A" opacity="1.000000" stroke="none" 
	d="
M250.101410,89.914520 
	C250.433258,90.024071 250.658676,90.237083 250.995392,90.665283 
	C251.132355,90.853325 250.929993,91.051170 250.617645,91.023636 
	C250.058456,90.765007 249.910965,90.482101 249.862854,90.147392 
	C249.862854,90.147392 250.020615,89.990837 250.101410,89.914520 
z"/>
<path fill="#2F0C2E" opacity="1.000000" stroke="none" 
	d="
M251.329315,140.970413 
	C251.646866,140.692871 251.938965,140.831207 252.252075,141.345001 
	C252.018097,141.465332 251.695038,141.353943 251.329315,140.970413 
z"/>
<path fill="#2F0C2E" opacity="1.000000" stroke="none" 
	d="
M336.334686,198.966293 
	C336.586151,198.888168 336.860229,199.087830 337.199341,199.542206 
	C336.962036,199.612640 336.659637,199.428360 336.334686,198.966293 
z"/>
<path fill="#2C092C" opacity="1.000000" stroke="none" 
	d="
M215.009888,4.290338 
	C215.296799,4.558806 215.190491,4.865582 214.744217,5.254917 
	C214.603378,5.045701 214.674194,4.709424 215.009888,4.290338 
z"/>
<path fill="#2C092C" opacity="1.000000" stroke="none" 
	d="
M235.860977,126.159363 
	C235.576843,126.001404 235.339661,125.790627 235.018890,125.327209 
	C234.888367,125.127380 235.054001,124.949661 235.340515,124.907913 
	C235.627029,124.866158 236.035858,124.937538 236.035858,124.937538 
	C236.035858,124.937538 236.001526,124.993004 236.044983,125.202896 
	C236.088440,125.412796 236.157745,125.842239 236.082764,125.920784 
	C236.007797,125.999329 235.860977,126.159363 235.860977,126.159363 
z"/>
<path fill="#2C092C" opacity="1.000000" stroke="none" 
	d="
M236.887314,127.097565 
	C236.566086,126.978027 236.336975,126.770821 235.998474,126.345947 
	C235.860977,126.159363 236.007797,125.999329 236.294159,125.965363 
	C236.580521,125.931389 237.008728,125.989143 237.008728,125.989143 
	C237.008728,125.989143 237.000000,126.000000 237.011261,126.230133 
	C237.022537,126.460258 237.077316,126.925629 237.077316,126.925629 
	C237.077316,126.925629 236.951309,127.040993 236.887314,127.097565 
z"/>
<path fill="#D3604C" opacity="1.000000" stroke="none" 
	d="
M328.262024,163.993469 
	C328.009399,163.811737 328.009521,163.632812 328.023621,163.185272 
	C328.315735,163.107468 328.593872,163.298294 328.946136,163.740768 
	C328.851776,163.993713 328.683258,163.994995 328.262024,163.993469 
z"/>
<path fill="#2F0C2E" opacity="1.000000" stroke="none" 
	d="
M348.116028,209.233383 
	C348.300140,209.126251 348.617737,209.236313 349.053894,209.570801 
	C348.864807,209.680328 348.557129,209.565445 348.116028,209.233383 
z"/>
<path fill="#E96343" opacity="1.000000" stroke="none" 
	d="
M296.579315,142.503967 
	C294.805725,141.242523 293.331543,139.845139 291.857391,138.447754 
	C292.213989,138.110413 292.570618,137.773071 292.927216,137.435730 
	C294.378296,138.955093 298.514099,137.973312 296.579315,142.503967 
z"/>
<path fill="#D5624F" opacity="1.000000" stroke="none" 
	d="
M346.900696,206.726318 
	C345.554993,206.075424 344.205597,205.067673 342.778198,203.764511 
	C344.099152,204.435883 345.498077,205.402679 346.900696,206.726318 
z"/>
<path fill="#D36353" opacity="1.000000" stroke="none" 
	d="
M231.531647,119.880722 
	C231.183441,119.370720 231.058868,119.009964 230.923431,118.362793 
	C231.615341,118.816399 232.318100,119.556412 233.004547,120.651817 
	C232.577255,120.681465 232.166275,120.355713 231.531647,119.880722 
z"/>
<path fill="#D36353" opacity="1.000000" stroke="none" 
	d="
M230.929977,117.731186 
	C230.505997,117.750488 230.086594,117.435097 229.437469,116.971565 
	C229.084961,116.448143 228.962158,116.072853 228.830139,115.401352 
	C229.525467,115.868927 230.230011,116.632706 230.929977,117.731186 
z"/>
<path fill="#D4614B" opacity="1.000000" stroke="none" 
	d="
M249.656387,90.090942 
	C249.910965,90.482101 250.058456,90.765007 250.514130,91.120102 
	C250.850052,91.607285 250.977142,91.970482 251.132446,92.621178 
	C250.456848,92.145882 249.753036,91.383095 249.039169,90.288101 
	C249.029114,89.955910 249.449921,90.034485 249.656387,90.090942 
z"/>
<path fill="#D36353" opacity="1.000000" stroke="none" 
	d="
M239.923950,128.872559 
	C239.351059,128.682312 238.735870,128.154510 238.038223,127.330780 
	C238.597733,127.534912 239.239685,128.034943 239.923950,128.872559 
z"/>
<path fill="#D4614B" opacity="1.000000" stroke="none" 
	d="
M290.724182,130.898254 
	C290.974274,131.019241 290.992188,131.506210 290.996216,131.749756 
	C290.372314,131.536011 289.744354,131.078705 289.058533,130.310699 
	C289.491791,130.259079 289.982910,130.518173 290.724182,130.898254 
z"/>
<path fill="#D36353" opacity="1.000000" stroke="none" 
	d="
M236.009628,124.637436 
	C236.035858,124.937538 235.627029,124.866158 235.424683,124.820328 
	C235.100677,124.404869 234.979050,124.035240 234.841187,123.373497 
	C235.211105,123.500031 235.597244,123.918686 236.009628,124.637436 
z"/>
<path fill="#D36353" opacity="1.000000" stroke="none" 
	d="
M223.869354,106.824211 
	C223.498016,106.687180 223.134460,106.220268 222.707092,105.454613 
	C223.054565,105.602028 223.465851,106.048180 223.869354,106.824211 
z"/>
<path fill="#D4614B" opacity="1.000000" stroke="none" 
	d="
M246.704834,86.033829 
	C247.032425,86.479591 247.150711,86.875122 247.364532,87.567078 
	C247.010330,87.428703 246.560577,86.993904 246.093460,86.222794 
	C246.076096,85.886482 246.495514,85.983582 246.704834,86.033829 
z"/>
<path fill="#D5624F" opacity="1.000000" stroke="none" 
	d="
M339.921875,200.876251 
	C339.551727,201.105209 339.271179,200.961136 338.956848,200.463272 
	C339.218048,200.372879 339.580841,200.504135 339.921875,200.876251 
z"/>
<path fill="#D5624F" opacity="1.000000" stroke="none" 
	d="
M342.633484,203.052078 
	C342.174377,203.118118 341.658142,202.873444 341.028931,202.344910 
	C341.469452,202.287842 342.022888,202.514603 342.633484,203.052078 
z"/>
<path fill="#D4614B" opacity="1.000000" stroke="none" 
	d="
M248.171722,88.956192 
	C248.381119,88.931038 248.653839,89.180923 248.984406,89.707794 
	C248.773193,89.733597 248.504105,89.482422 248.171722,88.956192 
z"/>
<path fill="#D4614B" opacity="1.000000" stroke="none" 
	d="
M252.142487,94.164963 
	C252.339172,94.107430 252.625061,94.284370 252.969818,94.718765 
	C252.763031,94.783958 252.497375,94.591698 252.142487,94.164963 
z"/>
<path fill="#D4614B" opacity="1.000000" stroke="none" 
	d="
M251.170532,93.112518 
	C251.380112,93.052094 251.670807,93.237221 252.016388,93.685890 
	C251.798080,93.752319 251.524857,93.555199 251.170532,93.112518 
z"/>
<path fill="#D5624F" opacity="1.000000" stroke="none" 
	d="
M340.860168,201.848755 
	C340.654816,201.918594 340.346588,201.747787 339.966064,201.315384 
	C340.181641,201.238556 340.469421,201.423340 340.860168,201.848755 
z"/>
<path fill="#D36353" opacity="1.000000" stroke="none" 
	d="
M233.861893,121.861908 
	C233.663452,121.912369 233.383804,121.720993 233.047546,121.269272 
	C233.254181,121.212646 233.517426,121.416367 233.861893,121.861908 
z"/>
<path fill="#D36353" opacity="1.000000" stroke="none" 
	d="
M234.824600,122.898514 
	C234.605652,122.967010 234.303848,122.783112 233.946289,122.325806 
	C234.174286,122.250313 234.458008,122.448219 234.824600,122.898514 
z"/>
<path fill="#D36353" opacity="1.000000" stroke="none" 
	d="
M236.917358,125.766098 
	C237.008728,125.989143 236.580521,125.931389 236.369141,125.886810 
	C236.157745,125.842239 236.088440,125.412796 236.076797,125.195702 
	C236.388611,125.072617 236.642227,125.260765 236.917358,125.766098 
z"/>
<path fill="#D36353" opacity="1.000000" stroke="none" 
	d="
M237.298538,126.979813 
	C237.077316,126.925629 237.022537,126.460258 237.016739,126.226028 
	C237.274414,126.187988 237.537888,126.384193 237.888153,126.815994 
	C237.974945,127.051590 237.519760,127.033989 237.298538,126.979813 
z"/>
<path fill="#D4614B" opacity="1.000000" stroke="none" 
	d="
M245.187866,84.891960 
	C245.402405,84.865685 245.683289,85.127647 246.035980,85.674332 
	C245.823242,85.699432 245.538742,85.439819 245.187866,84.891960 
z"/>
<path fill="#0D0C3C" opacity="1.000000" stroke="none" 
	d="
M291.052795,245.616455 
	C286.694672,246.185303 283.349579,245.494186 280.412689,240.867462 
	C277.782104,236.723312 272.495209,234.328857 268.668671,230.845627 
	C267.340576,229.636688 266.876953,227.478119 266.030579,225.338776 
	C274.332092,231.718567 282.621429,238.512863 291.052795,245.616455 
z"/>
<path fill="#0D0C3C" opacity="1.000000" stroke="none" 
	d="
M265.906952,224.657043 
	C262.043304,224.420410 258.245422,223.522583 255.193893,220.400299 
	C253.417419,218.582626 251.096420,217.297134 249.008987,215.389725 
	C254.575897,218.126389 260.154266,221.245529 265.906952,224.657043 
z"/>
<path fill="#0D0C3C" opacity="1.000000" stroke="none" 
	d="
M304.912201,272.640686 
	C302.685394,273.132904 301.204498,272.772614 300.866119,269.941345 
	C300.446014,266.426514 299.302277,262.998199 298.724609,259.275574 
	C300.961212,263.436432 302.944305,267.854248 304.912201,272.640686 
z"/>
<path fill="#F4F3F4" opacity="1.000000" stroke="none" 
	d="
M355.145386,303.933044 
	C356.034454,304.981903 356.583130,305.918976 357.131805,306.856018 
	C353.378265,305.750214 350.703613,302.158997 346.471710,306.419983 
	C348.350281,300.663544 348.602356,300.610931 355.145386,303.933044 
z"/>
<path fill="#EFEEF2" opacity="1.000000" stroke="none" 
	d="
M161.108383,336.387085 
	C167.024490,335.999390 173.045944,335.997559 179.536255,335.996704 
	C173.804947,337.798279 167.598999,339.458771 161.108383,336.387085 
z"/>
<path fill="#F4F3F4" opacity="1.000000" stroke="none" 
	d="
M344.610687,314.009949 
	C341.975189,317.461090 333.920380,319.554169 329.746155,317.938904 
	C334.591949,316.626953 339.406677,315.323456 344.610687,314.009949 
z"/>
<path fill="#0D0C3D" opacity="1.000000" stroke="none" 
	d="
M220.999817,199.001221 
	C221.498810,198.983795 221.997803,198.966370 222.870239,198.922119 
	C224.771912,199.931519 226.300140,200.967728 227.999390,202.457306 
	C228.443436,202.976105 228.716446,203.041550 228.989471,203.106995 
	C229.587540,203.410965 230.185608,203.714951 230.916412,204.609009 
	C231.031174,205.465836 231.013168,205.732559 230.995163,205.999298 
	C228.236404,204.366638 225.477661,202.733963 222.247421,200.792938 
	C221.517227,199.990128 221.258530,199.495667 220.999817,199.001221 
z"/>
<path fill="#0D0C3C" opacity="1.000000" stroke="none" 
	d="
M231.155441,206.228836 
	C231.013168,205.732559 231.031174,205.465836 231.088882,204.800018 
	C234.725998,206.592850 238.323380,208.784805 242.155334,211.218994 
	C238.698502,209.793610 235.007111,208.125992 231.155441,206.228836 
z"/>
<path fill="#070733" opacity="1.000000" stroke="none" 
	d="
M283.312927,335.185486 
	C279.934479,333.253326 281.604858,331.453552 283.620422,330.209991 
	C284.926971,329.403931 286.734497,329.409851 288.719238,329.063293 
	C287.273895,331.068939 285.426819,333.063293 283.312927,335.185486 
z"/>
<path fill="#F3F3F1" opacity="1.000000" stroke="none" 
	d="
M308.960327,247.758850 
	C306.095978,246.029724 303.555969,244.366714 301.015961,242.703690 
	C301.370697,242.149155 301.725403,241.594620 302.080139,241.040070 
	C304.853607,243.055923 307.627106,245.071762 310.400574,247.087616 
	C310.028595,247.333389 309.656616,247.579178 308.960327,247.758850 
z"/>
<path fill="#0D0C3C" opacity="1.000000" stroke="none" 
	d="
M298.000061,256.629578 
	C293.965485,255.118042 293.086151,251.259964 292.087952,247.096863 
	C292.472382,246.841171 292.835327,246.978424 293.570312,247.073380 
	C293.942352,247.031082 293.736176,247.237900 293.736176,247.237900 
	C295.152252,250.248138 296.568329,253.258362 298.000061,256.629578 
z"/>
<path fill="#F1F1F2" opacity="1.000000" stroke="none" 
	d="
M320.662964,239.063507 
	C320.280792,243.299271 318.356628,246.524155 312.707977,248.087189 
	C315.777496,244.476807 318.051697,241.801910 320.662964,239.063507 
z"/>
<path fill="#070733" opacity="1.000000" stroke="none" 
	d="
M289.452576,329.103790 
	C291.199249,326.503052 293.326080,323.880402 295.773773,321.123566 
	C295.518890,324.856506 293.993774,327.989014 289.452576,329.103790 
z"/>
<path fill="#F3F3F1" opacity="1.000000" stroke="none" 
	d="
M293.853424,247.147095 
	C294.679565,244.602554 292.745605,240.620438 298.364563,239.170456 
	C296.806213,242.293396 295.632446,244.645615 294.097412,247.117859 
	C293.736176,247.237900 293.942352,247.031082 293.853424,247.147095 
z"/>
<path fill="#070733" opacity="1.000000" stroke="none" 
	d="
M276.496094,341.007202 
	C274.387909,335.559601 279.393890,337.288879 281.984894,335.999878 
	C280.537659,337.643982 278.684937,339.291992 276.496094,341.007202 
z"/>
<path fill="#F2F3F0" opacity="1.000000" stroke="none" 
	d="
M313.003662,321.003662 
	C310.756256,322.692078 308.508850,324.380493 306.261444,326.068909 
	C305.920441,325.506439 305.579407,324.943970 305.238403,324.381500 
	C307.569611,323.253815 309.900787,322.126129 312.615997,320.999207 
	C313.000000,321.000000 313.003662,321.003662 313.003662,321.003662 
z"/>
<path fill="#F2F3F0" opacity="1.000000" stroke="none" 
	d="
M304.800232,329.900787 
	C303.495514,330.863098 302.277466,331.479950 301.059418,332.096802 
	C300.830597,331.743896 300.601746,331.390961 300.372925,331.038055 
	C302.034546,330.393127 303.696198,329.748169 305.357849,329.103210 
	C305.031708,328.580414 304.705566,328.057587 304.379395,327.534760 
	C304.548553,328.208282 304.717712,328.881805 304.800232,329.900787 
z"/>
<path fill="#F4F3F4" opacity="1.000000" stroke="none" 
	d="
M345.336273,313.933655 
	C345.525299,312.447845 346.050537,310.895660 346.575806,309.343506 
	C347.070282,309.585754 347.564789,309.828033 348.059265,310.070282 
	C347.263672,311.335968 346.468079,312.601624 345.336273,313.933655 
z"/>
<path fill="#F2F2F2" opacity="1.000000" stroke="none" 
	d="
M312.999084,320.998657 
	C314.691345,320.395935 316.384583,319.794495 318.077789,319.193085 
	C318.179657,319.674835 318.281494,320.156586 318.383362,320.638336 
	C316.853882,320.760864 315.324402,320.883392 313.399292,321.004791 
	C313.003662,321.003662 313.000000,321.000000 312.999084,320.998657 
z"/>
<path fill="#0D0C3C" opacity="1.000000" stroke="none" 
	d="
M245.093033,212.874634 
	C243.386505,215.927597 242.991028,213.787506 242.435257,211.861450 
	C243.268585,211.888367 244.089172,212.278824 245.093033,212.874634 
z"/>
<path fill="#F2F2F2" opacity="1.000000" stroke="none" 
	d="
M321.731171,319.471069 
	C321.905945,318.920929 322.277222,318.574890 322.648468,318.228882 
	C322.909546,318.532043 323.170624,318.835175 323.431702,319.138306 
	C322.930328,319.317291 322.428986,319.496277 321.731171,319.471069 
z"/>
<path fill="#EFEEF2" opacity="1.000000" stroke="none" 
	d="
M180.315521,335.966614 
	C180.766846,335.340454 181.536743,334.677216 182.656067,334.005432 
	C182.215027,334.641083 181.424561,335.285339 180.315521,335.966614 
z"/>
<path fill="#F2F2F2" opacity="1.000000" stroke="none" 
	d="
M327.545288,319.044006 
	C327.187042,319.260864 326.831543,319.258209 326.478088,319.230072 
	C326.468475,319.229309 326.474518,318.825653 326.483582,318.825226 
	C326.837738,318.808197 327.193115,318.816223 327.545288,319.044006 
z"/>
<path fill="#EFEEF2" opacity="1.000000" stroke="none" 
	d="
M183.309097,333.949463 
	C183.454681,333.372345 183.913025,332.739838 184.684479,332.054871 
	C184.538986,332.632996 184.080429,333.263519 183.309097,333.949463 
z"/>
<path fill="#F1F1F2" opacity="1.000000" stroke="none" 
	d="
M321.182922,238.878876 
	C321.113678,238.608276 321.227325,238.215958 321.340973,237.823624 
	C321.349243,238.134796 321.357544,238.445984 321.182922,238.878876 
z"/>
<path fill="#F2F3F0" opacity="1.000000" stroke="none" 
	d="
M297.789032,329.377289 
	C298.008209,329.332642 298.133789,329.388641 298.259399,329.444580 
	C298.071411,329.455688 297.883453,329.466797 297.789032,329.377289 
z"/>
<path fill="#EFEEF2" opacity="1.000000" stroke="none" 
	d="
M159.193176,336.890808 
	C159.107452,336.697296 159.307404,336.440735 159.789734,336.117584 
	C159.882462,336.315063 159.684692,336.573975 159.193176,336.890808 
z"/>
<path fill="#0D0C3C" opacity="1.000000" stroke="none" 
	d="
M246.827271,213.734985 
	C246.702927,213.908401 246.406631,213.855255 246.106369,213.588165 
	C246.286697,213.418945 246.470993,213.463669 246.827271,213.734985 
z"/>
<path fill="#0D0C3C" opacity="1.000000" stroke="none" 
	d="
M228.822937,202.899292 
	C228.716446,203.041550 228.443436,202.976105 228.159668,202.720551 
	C228.318069,202.584152 228.487228,202.637863 228.822937,202.899292 
z"/>
<path fill="#0D0C3D" opacity="1.000000" stroke="none" 
	d="
M201.963745,226.484955 
	C209.168228,222.618820 216.761063,218.920944 224.695587,215.150360 
	C220.484726,218.354462 216.140839,221.997757 211.293930,224.757584 
	C208.771378,226.193924 205.361282,226.071503 201.963745,226.484955 
z"/>
<path fill="#0D0C3D" opacity="1.000000" stroke="none" 
	d="
M196.978394,231.024231 
	C198.084457,229.566147 199.455597,228.264694 201.049713,226.743790 
	C201.831223,230.974854 200.702911,232.278854 196.978394,231.024231 
z"/>
<path fill="#050344" opacity="1.000000" stroke="none" 
	d="
M220.706833,199.029205 
	C221.258530,199.495667 221.517227,199.990128 221.891205,200.738983 
	C220.534729,204.359894 220.053497,201.451340 219.125183,200.276123 
	C219.468842,199.681274 219.941345,199.369232 220.706833,199.029205 
z"/>
<path fill="#F3F3F1" opacity="1.000000" stroke="none" 
	d="
M161.368408,272.185242 
	C162.111832,270.050751 162.694565,268.249237 163.703201,265.131073 
	C164.266205,271.357056 161.992844,275.923218 157.456436,277.688934 
	C159.085861,275.442963 160.146790,273.980591 161.368408,272.185242 
z"/>
</svg>